<svg width="1380" height="783" viewBox="0 0 1380 783" fill="none" xmlns="http://www.w3.org/2000/svg">
<path d="M1330.37 619.85C1296.49 547.85 1102.74 126.73 1089.19 95.4003C1074 60.2803 1049.39 49.4503 1002.24 37.7603C957.972 26.7803 903.422 27.6103 855.272 27.6103H525.362C468.502 27.6103 439.542 24.1703 383.682 36.3103C330.902 47.7803 307.962 62.7503 295.362 85.8703C295.362 85.8703 62.4318 592.32 34.1918 653.02C12.1318 700.44 -2.53807 740.65 23.8119 782H1356C1384.24 732.49 1358.52 679.66 1330.37 619.84V619.85Z" fill="#0CA854"/>
<path opacity="0.4" d="M25.4999 744C18.6999 710.8 27.8332 677.167 33.4999 666C26.6666 670.5 13.3999 694.6 8.99992 717C4.59992 739.4 9.33321 766.833 12.9999 782H42C41 782 29.1866 762 25.4999 744Z" fill="black"/>
<path opacity="0.4" d="M1353 744C1359.8 710.8 1350.67 677.167 1345 666C1351.83 670.5 1365.1 694.6 1369.5 717C1373.9 739.4 1369.17 766.833 1365.5 782H1337C1338 782 1349.31 762 1353 744Z" fill="black"/>
<path d="M0.265131 726.193C2.13495 761.743 11.5284 782 11.5284 782H30.5283C30.5283 782 13.0283 764 10.0283 745C7.02832 726 7.02832 669.5 7.02832 669.5C7.02832 669.5 -1.60468 690.642 0.265131 726.193Z" fill="#1A1D58"/>
<path d="M1379.29 726.193C1377.42 761.743 1368.03 782 1368.03 782H1349.03C1349.03 782 1366.53 764 1369.53 745C1372.53 726 1372.53 669.5 1372.53 669.5C1372.53 669.5 1381.16 690.642 1379.29 726.193Z" fill="#1A1D58"/>
<path d="M1377.75 696C1375.77 665 1359 636 1359 636C1359 636 1085.38 55.9555 1084 53.0001C1082.62 50.0446 1067 27.6901 1011.5 13.0001C960.5 -0.499941 919 5.87807e-05 919 5.87807e-05H461C461 5.87807e-05 419.5 -0.499941 368.5 13.0001C313 27.6901 296.801 51.3784 296 53.0001C295.199 54.6217 20 637 20 637C20 637 4.10996 666 2.23996 697C0.369964 728 10.19 746 10.19 746C10.19 746 11.43 727.39 13.51 718.5C15.59 709.61 20.01 698 20.01 698L296 93.0301V93.0001C296 93.0001 307 62.0001 374 44.5001C425.75 30.9801 461 32.0001 461 32.0001H919C919 32.0001 954.26 30.9901 1006 44.5001C1073 62.0001 1084 93.0001 1084 93.0001V92.9701C1084 92.9701 1355.36 689.307 1359 698C1362.64 706.693 1363.5 710.908 1366.37 726.857C1369.24 742.806 1365.5 757.852 1365.5 757.852C1365.5 757.852 1379.72 727 1377.75 696Z" fill="white"/>
<path d="M621.948 16.651C622.924 16.651 623.728 16.5905 624.592 16.4782C625.11 15.9598 625.853 15.0439 625.853 13.6614C625.853 11.8814 624.592 11.1297 622.864 11.1297H621.948V16.651ZM619.019 23.0277V9.92867H623.158C626.89 9.92867 628.791 11.484 628.791 13.6095C628.791 15.3376 627.642 16.314 626.381 17.0571L629.889 23.0363H626.674L623.572 17.7483C623.054 17.8088 622.535 17.8607 621.965 17.8607V23.0363H619.036L619.019 23.0277ZM608.192 19.1222H612.789L610.491 12.9701C609.687 15.0352 608.935 17.0485 608.192 19.1222ZM605.09 23.0277C606.983 18.8284 608.65 14.7501 610.612 9.92867H612.392L617.334 23.0277H614.232L613.195 20.2714H607.795L606.879 23.0277H605.099H605.09ZM594.903 11.8209L595.482 9.92867H606.404L605.825 11.8209C604.503 11.3025 603.181 10.8446 602.144 10.7841V23.0277H599.154V10.7841C598.066 10.8446 596.225 11.3025 594.903 11.8209ZM586.66 19.1222H591.257L589.019 13.0911C588.215 15.1043 587.412 17.1176 586.66 19.1222ZM583.411 23.0277C585.303 18.8284 587.032 14.6982 588.933 9.92867H590.712L595.655 23.0277H592.553L591.516 20.2714H586.116L585.2 23.0277H583.42H583.411ZM572.481 16.1326C572.481 20.4442 574.149 21.9908 576.68 21.9908C577.086 21.9908 577.544 21.9908 578.002 21.8785C578.581 20.7898 578.979 19.295 578.979 16.8756C578.979 12.4517 577.311 10.9569 574.84 10.9569C574.434 10.9569 574.036 11.0174 573.63 11.1297C572.939 12.1061 572.481 13.5404 572.481 16.1326ZM569.431 16.7633C569.431 12.1666 572.818 9.75586 575.868 9.75586C578.512 9.75586 582.02 11.4235 582.02 16.1326C582.02 19.0099 580.586 21.5934 578.166 22.6821C579.774 23.4856 581.674 24.4102 582.418 24.5743C582.824 24.6867 583.567 24.8595 584.31 24.8595C584.483 24.8595 584.595 24.8595 585.053 24.799L585.165 25.0323C584.707 25.4384 583.1 26.4148 581.951 26.4148C581.208 26.4148 580.344 26.1815 579.48 25.5507L576.205 23.14C575.799 23.2005 575.747 23.2005 575.514 23.2005C572.697 23.2005 569.422 21.4724 569.422 16.7633" fill="#00586F"/>
<path d="M561.777 23.1741C562.995 23.1741 563.799 22.8372 564.214 22.6816L563.954 21.8003C563.488 21.9817 563.021 22.0595 562.529 22.0595C561.544 22.0595 561.103 21.6707 561.103 20.6079V11.2416L558.978 11.5267V20.1413C558.978 22.3706 560.04 23.1741 561.777 23.1741Z" fill="#00586F"/>
<path d="M551.593 22.9927H553.719V13.4276L551.593 13.6868V22.9927Z" fill="#00586F"/>
<path d="M543.838 23.2175C546.482 23.2175 547.623 22.1028 547.623 20.4698C547.623 19.3811 546.664 18.422 545.446 17.6443C544.357 16.9444 542.698 15.8817 542.698 15.104C542.698 15.0262 542.698 14.9485 542.75 14.8707C543.139 14.6115 543.32 14.6374 543.838 14.6374C545.472 14.6374 546.69 15.7261 547.364 16.7371L547.675 14.4819C546.768 13.782 545.627 13.4709 544.59 13.4709C542.335 13.4709 541.065 14.5597 541.065 15.9853C541.065 17.411 542.361 18.1887 543.476 18.9404C544.59 19.6921 546.016 20.5994 546.016 21.5066V21.6622C545.653 21.9214 545.186 22.051 544.875 22.051C543.087 22.051 541.661 20.9623 541.039 20.1069L540.728 22.362C541.713 22.9842 542.983 23.2175 543.838 23.2175Z" fill="#00586F"/>
<path d="M534.731 22.958H536.856V13.3843L534.731 13.6435V22.958Z" fill="#00586F"/>
<path d="M526.428 22.9923H527.776C528.89 19.8818 530.057 16.7193 531.301 13.6001H529.746C529.072 16.0367 528.346 18.4215 527.594 20.6767C526.816 18.4215 526.091 16.0367 525.417 13.6001H522.954C524.172 16.7107 525.365 19.8731 526.428 22.9923Z" fill="#00586F"/>
<path d="M552.313 12.2613L554.153 10.8875L552.883 9.09888L551.043 10.4727L552.313 12.2613Z" fill="#C04D00"/>
<path d="M535.913 12.218L537.753 10.8441L536.483 9.05554L534.642 10.4294L535.913 12.218Z" fill="#C04D00"/>
<path d="M560.648 14.9484C562.852 15.0002 564.848 14.7929 564.848 13.445C564.848 13.1339 564.796 13.0302 564.718 12.8488H564.614C563.448 13.756 559.897 13.6523 557.538 13.6523C557.227 13.6523 556.942 13.6523 556.63 13.6264L556.605 13.7042C557.564 14.2744 558.86 14.8966 560.648 14.9484Z" fill="#8E1537"/>
<path d="M846.843 16.651C847.82 16.651 848.623 16.5905 849.487 16.4782C850.006 15.9598 850.749 15.0439 850.749 13.6614C850.749 11.8814 849.487 11.1297 847.759 11.1297H846.843V16.651ZM843.914 23.0277V9.92867H848.053C851.786 9.92867 853.687 11.484 853.687 13.6095C853.687 15.3376 852.538 16.314 851.276 17.0571L854.784 23.0363H851.57L848.468 17.7483C847.949 17.8088 847.431 17.8607 846.861 17.8607V23.0363H843.932L843.914 23.0277ZM833.088 19.1222H837.685L835.386 12.9701C834.583 15.0352 833.831 17.0485 833.088 19.1222ZM829.986 23.0277C831.878 18.8284 833.546 14.7501 835.507 9.92867H837.287L842.229 23.0277H839.127L838.091 20.2714H832.69L831.774 23.0277H829.994H829.986ZM819.799 11.8209L820.378 9.92867H831.299L830.72 11.8209C829.398 11.3025 828.076 10.8446 827.039 10.7841V23.0277H824.05V10.7841C822.961 10.8446 821.121 11.3025 819.799 11.8209ZM811.556 19.1222H816.152L813.914 13.0911C813.111 15.1043 812.307 17.1176 811.556 19.1222ZM808.307 23.0277C810.199 18.8284 811.927 14.6982 813.828 9.92867H815.608L820.55 23.0277H817.448L816.412 20.2714H811.011L810.095 23.0277H808.315H808.307ZM797.376 16.1326C797.376 20.4442 799.044 21.9908 801.576 21.9908C801.982 21.9908 802.44 21.9908 802.898 21.8785C803.477 20.7898 803.874 19.295 803.874 16.8756C803.874 12.4517 802.207 10.9569 799.735 10.9569C799.329 10.9569 798.932 11.0174 798.526 11.1297C797.834 12.1061 797.376 13.5404 797.376 16.1326ZM794.326 16.7633C794.326 12.1666 797.713 9.75586 800.764 9.75586C803.408 9.75586 806.916 11.4235 806.916 16.1326C806.916 19.0099 805.481 21.5934 803.062 22.6821C804.669 23.4856 806.57 24.4102 807.313 24.5743C807.719 24.6867 808.462 24.8595 809.205 24.8595C809.378 24.8595 809.49 24.8595 809.948 24.799L810.061 25.0323C809.603 25.4384 807.996 26.4148 806.846 26.4148C806.103 26.4148 805.239 26.1815 804.375 25.5507L801.101 23.14C800.694 23.2005 800.643 23.2005 800.409 23.2005C797.593 23.2005 794.318 21.4724 794.318 16.7633" fill="#00586F"/>
<path d="M786.673 23.1741C787.891 23.1741 788.695 22.8372 789.11 22.6816L788.851 21.8003C788.384 21.9817 787.917 22.0595 787.425 22.0595C786.44 22.0595 785.999 21.6707 785.999 20.6079V11.2416L783.874 11.5267V20.1413C783.874 22.3706 784.936 23.1741 786.673 23.1741Z" fill="#00586F"/>
<path d="M776.489 22.9927H778.615V13.4276L776.489 13.6868V22.9927Z" fill="#00586F"/>
<path d="M768.735 23.2175C771.379 23.2175 772.519 22.1028 772.519 20.4698C772.519 19.3811 771.56 18.422 770.342 17.6443C769.253 16.9444 767.594 15.8817 767.594 15.104C767.594 15.0262 767.594 14.9485 767.646 14.8707C768.035 14.6115 768.216 14.6374 768.735 14.6374C770.368 14.6374 771.586 15.7261 772.26 16.7371L772.571 14.4819C771.664 13.782 770.523 13.4709 769.486 13.4709C767.231 13.4709 765.961 14.5597 765.961 15.9853C765.961 17.411 767.257 18.1887 768.372 18.9404C769.486 19.6921 770.912 20.5994 770.912 21.5066V21.6622C770.549 21.9214 770.082 22.051 769.771 22.051C767.983 22.051 766.557 20.9623 765.935 20.1069L765.624 22.362C766.609 22.9842 767.879 23.2175 768.735 23.2175Z" fill="#00586F"/>
<path d="M759.627 22.958H761.752V13.3843L759.627 13.6435V22.958Z" fill="#00586F"/>
<path d="M751.324 22.9923H752.672C753.786 19.8818 754.953 16.7193 756.197 13.6001H754.642C753.968 16.0367 753.242 18.4215 752.49 20.6767C751.713 18.4215 750.987 16.0367 750.313 13.6001H747.85C749.069 16.7107 750.261 19.8731 751.324 22.9923Z" fill="#00586F"/>
<path d="M777.209 12.2613L779.049 10.8875L777.779 9.09888L775.939 10.4727L777.209 12.2613Z" fill="#C04D00"/>
<path d="M760.809 12.218L762.649 10.8441L761.379 9.05554L759.539 10.4294L760.809 12.218Z" fill="#C04D00"/>
<path d="M785.544 14.9484C787.748 15.0002 789.744 14.7929 789.744 13.445C789.744 13.1339 789.692 13.0302 789.614 12.8488H789.51C788.344 13.756 784.793 13.6523 782.434 13.6523C782.123 13.6523 781.838 13.6523 781.527 13.6264L781.501 13.7042C782.46 14.2744 783.756 14.8966 785.544 14.9484Z" fill="#8E1537"/>
<g opacity="0.8">
<path d="M255.695 532.5L415.36 55.5H963.64L1123.31 532.5H255.695Z" stroke="white"/>
<line x1="353" y1="241.5" x2="1026" y2="241.5" stroke="white"/>
<path d="M776.5 242.5C776.5 247.652 774.142 252.599 769.802 257.14C765.458 261.685 759.15 265.8 751.316 269.266C735.649 276.199 713.971 280.5 690 280.5C666.029 280.5 644.351 276.199 628.684 269.266C620.85 265.8 614.542 261.685 610.198 257.14C605.858 252.599 603.5 247.652 603.5 242.5C603.5 237.348 605.858 232.401 610.198 227.86C614.542 223.315 620.85 219.2 628.684 215.734C644.351 208.801 666.029 204.5 690 204.5C713.971 204.5 735.649 208.801 751.316 215.734C759.15 219.2 765.458 223.315 769.802 227.86C774.142 232.401 776.5 237.348 776.5 242.5Z" stroke="white"/>
<path d="M529.598 104.5L538.418 55.5H841.582L850.402 104.5H529.598Z" stroke="white"/>
<path d="M620.532 70.5L621.47 55.5H757.53L758.468 70.5H620.532Z" stroke="white"/>
<path d="M689.5 114.5C676.516 114.5 664.473 113.365 654.537 111.428C645.551 109.677 638.332 107.278 633.693 104.5H745.307C740.668 107.278 733.449 109.677 724.463 111.428C714.527 113.365 702.484 114.5 689.5 114.5Z" stroke="white"/>
<path d="M690 408.5C671.937 408.5 655.182 410.77 641.357 414.644C628.141 418.347 617.648 423.502 611.233 429.5H768.767C762.352 423.502 751.859 418.347 738.643 414.644C724.818 410.77 708.063 408.5 690 408.5Z" stroke="white"/>
<path d="M451.6 532.5L470.417 429.5H908.583L927.4 532.5H451.6Z" stroke="white"/>
<path d="M582.542 532.5L585.461 496.5H795.539L798.458 532.5H582.542Z" stroke="white"/>
</g>
</svg>
