<svg width="664" height="664" viewBox="0 0 664 664" fill="none" xmlns="http://www.w3.org/2000/svg">
<g clip-path="url(#clip0)">
<path d="M275.99 223.5L263.49 229V300H402.51V229L390.01 223.5L387.01 188.5C390.176 183.833 394.009 175.59 394.009 167.5C394.009 162 393.51 155.5 393.51 152.5C396.176 152.667 402.01 151.3 404.01 144.5C410.01 137 413.01 112.5 409.51 106.5C406.71 101.7 403.009 105.833 401.509 108.5C404.509 86 402 48.5 388.5 32C375 15.5 359 5 333 5C307 5 291 15.5 277.5 32C264 48.5 261.491 86 264.491 108.5C262.991 105.833 259.29 101.7 256.49 106.5C252.99 112.5 255.99 137 261.99 144.5C263.99 151.3 269.824 152.667 272.49 152.5C272.49 155.5 271.991 162 271.991 167.5C271.991 175.59 275.824 183.833 278.99 188.5L275.99 223.5Z" fill="#F2F0F4"/>
<path d="M333 263.5C309.5 263.5 287.5 228 266.5 228L253.5 234.5L292 298H374L412.5 234.5L399.5 228C378.5 228 356.5 263.5 333 263.5Z" fill="white"/>
<path d="M384.5 186C380.5 192 351 216.5 333 216.5V6C357 5.99994 374 15.5 387.5 32.5003C402.038 50.8073 400.667 95.8334 398 117.5C400 113.5 404 103.5 408 105.5C412.837 107.919 407 138 401.5 143C399.5 149.5 393.5 150 391 149C391.167 155.333 391.4 168.7 391 171.5C390.5 175 388.5 180 384.5 186Z" fill="white"/>
<path d="M281.302 186C285.302 192 315 216.5 333 216.5V6C309 5.99994 291.802 15.5 278.302 32.5003C263.764 50.8073 265.135 95.8334 267.802 117.5C265.802 113.5 261.802 103.5 257.802 105.5C252.964 107.919 258.802 138 264.302 143C266.302 149.5 272.302 150 274.802 149C274.635 155.333 274.402 168.7 274.802 171.5C275.302 175 277.302 180 281.302 186Z" fill="white"/>
<path d="M275.99 223.5L263.49 229V300H402.51V229L390.01 223.5L387.01 188.5C390.176 183.833 394.009 175.59 394.009 167.5C394.009 162 393.51 155.5 393.51 152.5C396.176 152.667 402.01 151.3 404.01 144.5C410.01 137 413.01 112.5 409.51 106.5C406.71 101.7 403.009 105.833 401.509 108.5C404.509 86 402 48.5 388.5 32C375 15.5 359 5 333 5C307 5 291 15.5 277.5 32C264 48.5 261.491 86 264.491 108.5C262.991 105.833 259.29 101.7 256.49 106.5C252.99 112.5 255.99 137 261.99 144.5C263.99 151.3 269.824 152.667 272.49 152.5C272.49 155.5 271.991 162 271.991 167.5C271.991 175.59 275.824 183.833 278.99 188.5L275.99 223.5Z" stroke="#D3CBDC" stroke-width="2"/>
<path d="M404 125.919C404 123.574 402.977 119.47 400.42 120.057C399.256 120.59 400.879 123.19 400.91 125.919C400.946 129.185 399.584 132.636 400.42 132.955C401.954 133.541 404 128.265 404 125.919Z" fill="#F2F0F4"/>
<path d="M262 125.919C262 123.574 263.023 119.47 265.58 120.057C266.744 120.59 265.121 123.19 265.09 125.919C265.054 129.185 266.416 132.636 265.58 132.955C264.046 133.541 262 128.265 262 125.919Z" fill="#F2F0F4"/>
<path d="M127.5 561.5C121.5 547 115.5 492.5 115.5 465.5L196 474V552.5L185 607.5C167.833 597 132.3 573.1 127.5 561.5Z" fill="white"/>
<path d="M135 555C130.5 550 121.5 513.5 116 473.5C116 502.5 122 547.5 127 561C131.05 571.936 167.167 596 183 606L186 580.5C170.5 573.667 138.6 559 135 555Z" fill="#F2F0F4"/>
<path d="M127.5 561.5C121.5 547 115.5 492.5 115.5 465.5L196 474V552.5L185 607.5C167.833 597 132.3 573.1 127.5 561.5Z" stroke="#D3CBDC" stroke-width="2"/>
<path d="M537.5 561.5C543.5 547 549.5 492.5 549.5 465.5L469 474V552.5L480 607.5C497.167 597 532.7 573.1 537.5 561.5Z" fill="white"/>
<path d="M530 555C534.5 550 543.5 513.5 549 473.5C549 502.5 543 547.5 538 561C533.95 571.936 497.833 596 482 606L479 580.5C494.5 573.667 526.4 559 530 555Z" fill="#F2F0F4"/>
<path d="M537.5 561.5C543.5 547 549.5 492.5 549.5 465.5L469 474V552.5L480 607.5C497.167 597 532.7 573.1 537.5 561.5Z" stroke="#D3CBDC" stroke-width="2"/>
<path d="M177.5 663.5L188 554L181.653 486C166.269 486.5 128.6 482.9 101 464.5C104 433.5 114 364 118.5 342C123 320 136.5 295 153 284C166.2 275.2 231.833 243.667 263 229C266 256 294 284 333 284C372 284 400 256 403 229C434.167 243.667 499.8 275.2 513 284C529.5 295 543 320 547.5 342C552 364 562 433.5 565 464.5C537.4 482.9 499.731 486.5 484.347 486L478 554L488.5 663.5H177.5Z" fill="white"/>
<path d="M196 417.5C195 411 190.5 395.5 178 393C177.667 405.167 177.2 432.1 178 442.5C178.8 452.9 185 520.833 188 553.5L177.5 664.5H186.5C192.167 633.5 205.2 567.9 212 553.5C220.5 535.5 300.5 495.649 296.5 495C278 492 206.5 484 207 473C207.5 462 218.388 455.282 212.5 451C207 447 205.5 453.5 200 454.5C194.5 455.5 189.5 432.5 192.5 427.5C195.5 422.5 197 424 196 417.5Z" fill="#F2F0F4"/>
<path d="M469.645 417.5C470.645 411 475.145 395.5 487.645 393C487.978 405.167 488.445 432.1 487.645 442.5C486.845 452.9 480.645 520.833 477.645 553.5L488.145 664.5H479.145C473.478 633.5 460.445 567.9 453.645 553.5C445.145 535.5 365.145 495.649 369.145 495C387.645 492 459.145 484 458.645 473C458.145 462 447.257 455.282 453.145 451C458.645 447 460.145 453.5 465.645 454.5C471.145 455.5 476.145 432.5 473.145 427.5C470.145 422.5 468.645 424 469.645 417.5Z" fill="#F2F0F4"/>
<path d="M177.5 441.5L181.653 486M181.653 486L188 554L177.5 665.5H488.5L478 554L484.347 486M181.653 486C166.269 486.5 128.6 482.9 101 464.5C104 433.5 114 364 118.5 342C123 320 136.5 295 153 284C166.2 275.2 231.833 243.667 263 229C266 256 294 284 333 284C372 284 400 256 403 229C434.167 243.667 499.8 275.2 513 284C529.5 295 543 320 547.5 342C552 364 562 433.5 565 464.5C537.4 482.9 499.731 486.5 484.347 486M488.5 441.5L484.347 486" stroke="#D3CBDC" stroke-width="2"/>
<path d="M304.781 315.689C295.511 312.079 244.703 304.034 219.016 306.326C207.885 307.32 203.779 308.788 197.666 313.956C191.552 319.123 197.366 321.195 211.756 318.87C248.23 312.977 298.821 319.27 303.908 319.681C310.179 320.188 314.05 319.3 304.781 315.689Z" fill="#F2F0F4"/>
<path d="M361.612 315.689C370.881 312.079 421.689 304.034 447.376 306.326C458.507 307.32 462.613 308.788 468.726 313.956C474.84 319.123 469.026 321.195 454.636 318.87C418.162 312.977 367.571 319.27 362.484 319.681C356.213 320.188 352.342 319.3 361.612 315.689Z" fill="#F2F0F4"/>
<path d="M343 194.817C343 197.478 338.523 194.817 333 194.817C327.477 194.817 323 197.478 323 194.817C323 192.157 327.477 190 333 190C338.523 190 343 192.157 343 194.817Z" fill="#F2F0F4"/>
</g>
<defs>
<clipPath id="clip0">
<rect width="664" height="664" fill="white"/>
</clipPath>
</defs>
</svg>
